<svg xmlns="http://www.w3.org/2000/svg" width="4800" height="1160" viewBox="0 0 4800 1160"><rect x="0" y="0" width="4800" height="1100" fill="#eef4f8"/><rect x="0" y="0" width="680" height="34" fill="#5fb3d9" opacity="0.85"/><text x="340" y="22" font-size="20" text-anchor="middle" fill="#ffffff" font-family="sans-serif">shallows</text><rect x="680" y="0" width="40" height="34" fill="#7fbf5f" opacity="0.85"/><rect x="720" y="0" width="360" height="34" fill="#8a8d94" opacity="0.85"/><text x="900" y="22" font-size="20" text-anchor="middle" fill="#ffffff" font-family="sans-serif">mountains</text><rect x="1080" y="0" width="160" height="34" fill="#cfe8f2" opacity="0.85"/><text x="1160" y="22" font-size="20" text-anchor="middle" fill="#ffffff" font-family="sans-serif">arctic</text><rect x="1240" y="0" width="60" height="34" fill="#8a8d94" opacity="0.85"/><rect x="1300" y="0" width="140" height="34" fill="#cfe8f2" opacity="0.85"/><text x="1370" y="22" font-size="20" text-anchor="middle" fill="#ffffff" font-family="sans-serif">arctic</text><rect x="1440" y="0" width="100" height="34" fill="#8a8d94" opacity="0.85"/><rect x="1540" y="0" width="220" height="34" fill="#7fbf5f" opacity="0.85"/><text x="1650" y="22" font-size="20" text-anchor="middle" fill="#ffffff" font-family="sans-serif">plains</text><rect x="1760" y="0" width="340" height="34" fill="#5fb3d9" opacity="0.85"/><text x="1930" y="22" font-size="20" text-anchor="middle" fill="#ffffff" font-family="sans-serif">shallows</text><rect x="2100" y="0" width="40" height="34" fill="#7fbf5f" opacity="0.85"/><rect x="2140" y="0" width="1120" height="34" fill="#2d7a3a" opacity="0.85"/><text x="2700" y="22" font-size="20" text-anchor="middle" fill="#ffffff" font-family="sans-serif">jungle</text><rect x="3260" y="0" width="120" height="34" fill="#d9b25f" opacity="0.85"/><rect x="3380" y="0" width="160" height="34" fill="#2d7a3a" opacity="0.85"/><text x="3460" y="22" font-size="20" text-anchor="middle" fill="#ffffff" font-family="sans-serif">jungle</text><rect x="3540" y="0" width="60" height="34" fill="#d9b25f" opacity="0.85"/><rect x="3600" y="0" width="580" height="34" fill="#5fb3d9" opacity="0.85"/><text x="3890" y="22" font-size="20" text-anchor="middle" fill="#ffffff" font-family="sans-serif">shallows</text><rect x="4180" y="0" width="40" height="34" fill="#d9b25f" opacity="0.85"/><rect x="4220" y="0" width="120" height="34" fill="#2d7a3a" opacity="0.85"/><rect x="4340" y="0" width="200" height="34" fill="#d9b25f" opacity="0.85"/><text x="4440" y="22" font-size="20" text-anchor="middle" fill="#ffffff" font-family="sans-serif">desert</text><rect x="4540" y="0" width="80" height="34" fill="#5fb3d9" opacity="0.85"/><rect x="4620" y="0" width="120" height="34" fill="#3fa08a" opacity="0.85"/><rect x="4740" y="0" width="60" height="34" fill="#5fb3d9" opacity="0.85"/><rect x="0" y="825" width="20" height="275" fill="#5fb3d9"/><rect x="20" y="823" width="20" height="277" fill="#5fb3d9"/><rect x="40" y="822" width="20" height="278" fill="#5fb3d9"/><rect x="60" y="818" width="20" height="282" fill="#5fb3d9"/><rect x="80" y="815" width="20" height="285" fill="#5fb3d9"/><rect x="100" y="812" width="20" height="288" fill="#5fb3d9"/><rect x="120" y="810" width="20" height="290" fill="#5fb3d9"/><rect x="140" y="810" width="20" height="290" fill="#5fb3d9"/><rect x="160" y="812" width="20" height="288" fill="#5fb3d9"/><rect x="180" y="815" width="20" height="285" fill="#5fb3d9"/><rect x="200" y="818" width="20" height="282" fill="#5fb3d9"/><rect x="220" y="822" width="20" height="278" fill="#5fb3d9"/><rect x="240" y="826" width="20" height="274" fill="#5fb3d9"/><rect x="260" y="829" width="20" height="271" fill="#5fb3d9"/><rect x="280" y="832" width="20" height="268" fill="#5fb3d9"/><rect x="300" y="833" width="20" height="267" fill="#5fb3d9"/><rect x="320" y="834" width="20" height="266" fill="#5fb3d9"/><rect x="340" y="833" width="20" height="267" fill="#5fb3d9"/><rect x="360" y="833" width="20" height="267" fill="#5fb3d9"/><rect x="380" y="834" width="20" height="266" fill="#5fb3d9"/><rect x="400" y="835" width="20" height="265" fill="#5fb3d9"/><rect x="420" y="837" width="20" height="263" fill="#5fb3d9"/><rect x="440" y="840" width="20" height="260" fill="#5fb3d9"/><rect x="460" y="843" width="20" height="257" fill="#5fb3d9"/><rect x="480" y="846" width="20" height="254" fill="#5fb3d9"/><rect x="500" y="847" width="20" height="253" fill="#5fb3d9"/><rect x="520" y="847" width="20" height="253" fill="#5fb3d9"/><rect x="540" y="845" width="20" height="255" fill="#5fb3d9"/><rect x="560" y="841" width="20" height="259" fill="#5fb3d9"/><rect x="580" y="835" width="20" height="265" fill="#5fb3d9"/><rect x="600" y="829" width="20" height="271" fill="#5fb3d9"/><rect x="620" y="821" width="20" height="279" fill="#5fb3d9"/><rect x="640" y="814" width="20" height="286" fill="#5fb3d9"/><rect x="660" y="806" width="20" height="294" fill="#5fb3d9"/><rect x="680" y="799" width="20" height="301" fill="#e8d8a0"/><rect x="700" y="792" width="20" height="308" fill="#e8d8a0"/><rect x="720" y="786" width="20" height="314" fill="#7a5c3a"/><rect x="740" y="782" width="20" height="318" fill="#7a5c3a"/><rect x="760" y="779" width="20" height="321" fill="#7a5c3a"/><rect x="780" y="776" width="20" height="324" fill="#7a5c3a"/><rect x="800" y="773" width="20" height="327" fill="#7a5c3a"/><rect x="820" y="769" width="20" height="331" fill="#7a5c3a"/><rect x="840" y="766" width="20" height="334" fill="#7a5c3a"/><rect x="860" y="762" width="20" height="338" fill="#7a5c3a"/><rect x="880" y="759" width="20" height="341" fill="#7a5c3a"/><rect x="900" y="757" width="20" height="343" fill="#7a5c3a"/><rect x="920" y="755" width="20" height="345" fill="#7a5c3a"/><rect x="940" y="754" width="20" height="346" fill="#7a5c3a"/><rect x="960" y="753" width="20" height="347" fill="#7a5c3a"/><rect x="980" y="753" width="20" height="347" fill="#7a5c3a"/><rect x="1000" y="753" width="20" height="347" fill="#7a5c3a"/><rect x="1020" y="753" width="20" height="347" fill="#7a5c3a"/><rect x="1040" y="754" width="20" height="346" fill="#7a5c3a"/><rect x="1060" y="754" width="20" height="346" fill="#7a5c3a"/><rect x="1080" y="755" width="20" height="345" fill="#7a5c3a"/><rect x="1100" y="757" width="20" height="343" fill="#7a5c3a"/><rect x="1120" y="758" width="20" height="342" fill="#7a5c3a"/><rect x="1140" y="759" width="20" height="341" fill="#7a5c3a"/><rect x="1160" y="761" width="20" height="339" fill="#7a5c3a"/><rect x="1180" y="762" width="20" height="338" fill="#7a5c3a"/><rect x="1200" y="763" width="20" height="337" fill="#7a5c3a"/><rect x="1220" y="764" width="20" height="336" fill="#7a5c3a"/><rect x="1240" y="765" width="20" height="335" fill="#7a5c3a"/><rect x="1260" y="766" width="20" height="334" fill="#7a5c3a"/><rect x="1280" y="768" width="20" height="332" fill="#7a5c3a"/><rect x="1300" y="770" width="20" height="330" fill="#7a5c3a"/><rect x="1320" y="773" width="20" height="327" fill="#7a5c3a"/><rect x="1340" y="775" width="20" height="325" fill="#7a5c3a"/><rect x="1360" y="778" width="20" height="322" fill="#7a5c3a"/><rect x="1380" y="780" width="20" height="320" fill="#7a5c3a"/><rect x="1400" y="782" width="20" height="318" fill="#7a5c3a"/><rect x="1420" y="784" width="20" height="316" fill="#7a5c3a"/><rect x="1440" y="786" width="20" height="314" fill="#7a5c3a"/><rect x="1460" y="787" width="20" height="313" fill="#7a5c3a"/><rect x="1480" y="789" width="20" height="311" fill="#7a5c3a"/><rect x="1500" y="790" width="20" height="310" fill="#7a5c3a"/><rect x="1520" y="791" width="20" height="309" fill="#7a5c3a"/><rect x="1540" y="792" width="20" height="308" fill="#e8d8a0"/><rect x="1560" y="792" width="20" height="308" fill="#e8d8a0"/><rect x="1580" y="792" width="20" height="308" fill="#e8d8a0"/><rect x="1600" y="792" width="20" height="308" fill="#e8d8a0"/><rect x="1620" y="793" width="20" height="307" fill="#e8d8a0"/><rect x="1640" y="794" width="20" height="306" fill="#e8d8a0"/><rect x="1660" y="795" width="20" height="305" fill="#e8d8a0"/><rect x="1680" y="797" width="20" height="303" fill="#e8d8a0"/><rect x="1700" y="799" width="20" height="301" fill="#e8d8a0"/><rect x="1720" y="800" width="20" height="300" fill="#e8d8a0"/><rect x="1740" y="802" width="20" height="298" fill="#e8d8a0"/><rect x="1760" y="804" width="20" height="296" fill="#5fb3d9"/><rect x="1780" y="806" width="20" height="294" fill="#5fb3d9"/><rect x="1800" y="807" width="20" height="293" fill="#5fb3d9"/><rect x="1820" y="809" width="20" height="291" fill="#5fb3d9"/><rect x="1840" y="811" width="20" height="289" fill="#5fb3d9"/><rect x="1860" y="813" width="20" height="287" fill="#5fb3d9"/><rect x="1880" y="815" width="20" height="285" fill="#5fb3d9"/><rect x="1900" y="817" width="20" height="283" fill="#5fb3d9"/><rect x="1920" y="820" width="20" height="280" fill="#5fb3d9"/><rect x="1940" y="822" width="20" height="278" fill="#5fb3d9"/><rect x="1960" y="823" width="20" height="277" fill="#5fb3d9"/><rect x="1980" y="824" width="20" height="276" fill="#5fb3d9"/><rect x="2000" y="823" width="20" height="277" fill="#5fb3d9"/><rect x="2020" y="821" width="20" height="279" fill="#5fb3d9"/><rect x="2040" y="817" width="20" height="283" fill="#5fb3d9"/><rect x="2060" y="813" width="20" height="287" fill="#5fb3d9"/><rect x="2080" y="808" width="20" height="292" fill="#5fb3d9"/><rect x="2100" y="803" width="20" height="297" fill="#e8d8a0"/><rect x="2120" y="797" width="20" height="303" fill="#e8d8a0"/><rect x="2140" y="791" width="20" height="309" fill="#7a5c3a"/><rect x="2160" y="783" width="20" height="317" fill="#7a5c3a"/><rect x="2180" y="774" width="20" height="326" fill="#7a5c3a"/><rect x="2200" y="765" width="20" height="335" fill="#7a5c3a"/><rect x="2220" y="753" width="20" height="347" fill="#7a5c3a"/><rect x="2240" y="741" width="20" height="359" fill="#7a5c3a"/><rect x="2260" y="727" width="20" height="373" fill="#7a5c3a"/><rect x="2280" y="712" width="20" height="388" fill="#7a5c3a"/><rect x="2300" y="695" width="20" height="405" fill="#7a5c3a"/><rect x="2320" y="679" width="20" height="421" fill="#7a5c3a"/><rect x="2340" y="664" width="20" height="436" fill="#7a5c3a"/><rect x="2360" y="651" width="20" height="449" fill="#7a5c3a"/><rect x="2380" y="639" width="20" height="461" fill="#7a5c3a"/><rect x="2400" y="629" width="20" height="471" fill="#7a5c3a"/><rect x="2420" y="620" width="20" height="480" fill="#7a5c3a"/><rect x="2440" y="613" width="20" height="487" fill="#7a5c3a"/><rect x="2460" y="605" width="20" height="495" fill="#7a5c3a"/><rect x="2480" y="599" width="20" height="501" fill="#7a5c3a"/><rect x="2500" y="592" width="20" height="508" fill="#7a5c3a"/><rect x="2520" y="586" width="20" height="514" fill="#7a5c3a"/><rect x="2540" y="582" width="20" height="518" fill="#7a5c3a"/><rect x="2560" y="580" width="20" height="520" fill="#7a5c3a"/><rect x="2580" y="582" width="20" height="518" fill="#7a5c3a"/><rect x="2600" y="587" width="20" height="513" fill="#7a5c3a"/><rect x="2620" y="597" width="20" height="503" fill="#7a5c3a"/><rect x="2640" y="607" width="20" height="493" fill="#7a5c3a"/><rect x="2660" y="618" width="20" height="482" fill="#7a5c3a"/><rect x="2680" y="628" width="20" height="472" fill="#7a5c3a"/><rect x="2700" y="637" width="20" height="463" fill="#7a5c3a"/><rect x="2720" y="643" width="20" height="457" fill="#7a5c3a"/><rect x="2740" y="648" width="20" height="452" fill="#7a5c3a"/><rect x="2760" y="654" width="20" height="446" fill="#7a5c3a"/><rect x="2780" y="660" width="20" height="440" fill="#7a5c3a"/><rect x="2800" y="668" width="20" height="432" fill="#7a5c3a"/><rect x="2820" y="678" width="20" height="422" fill="#7a5c3a"/><rect x="2840" y="690" width="20" height="410" fill="#7a5c3a"/><rect x="2860" y="702" width="20" height="398" fill="#7a5c3a"/><rect x="2880" y="714" width="20" height="386" fill="#7a5c3a"/><rect x="2900" y="726" width="20" height="374" fill="#7a5c3a"/><rect x="2920" y="736" width="20" height="364" fill="#7a5c3a"/><rect x="2940" y="745" width="20" height="355" fill="#7a5c3a"/><rect x="2960" y="754" width="20" height="346" fill="#7a5c3a"/><rect x="2980" y="761" width="20" height="339" fill="#7a5c3a"/><rect x="3000" y="768" width="20" height="332" fill="#7a5c3a"/><rect x="3020" y="775" width="20" height="325" fill="#7a5c3a"/><rect x="3040" y="781" width="20" height="319" fill="#7a5c3a"/><rect x="3060" y="785" width="20" height="315" fill="#7a5c3a"/><rect x="3080" y="788" width="20" height="312" fill="#7a5c3a"/><rect x="3100" y="789" width="20" height="311" fill="#7a5c3a"/><rect x="3120" y="788" width="20" height="312" fill="#7a5c3a"/><rect x="3140" y="787" width="20" height="313" fill="#7a5c3a"/><rect x="3160" y="786" width="20" height="314" fill="#7a5c3a"/><rect x="3180" y="785" width="20" height="315" fill="#7a5c3a"/><rect x="3200" y="785" width="20" height="315" fill="#7a5c3a"/><rect x="3220" y="787" width="20" height="313" fill="#7a5c3a"/><rect x="3240" y="790" width="20" height="310" fill="#7a5c3a"/><rect x="3260" y="793" width="20" height="307" fill="#e8d8a0"/><rect x="3280" y="796" width="20" height="304" fill="#e8d8a0"/><rect x="3300" y="797" width="20" height="303" fill="#e8d8a0"/><rect x="3320" y="798" width="20" height="302" fill="#e8d8a0"/><rect x="3340" y="797" width="20" height="303" fill="#e8d8a0"/><rect x="3360" y="794" width="20" height="306" fill="#e8d8a0"/><rect x="3380" y="791" width="20" height="309" fill="#7a5c3a"/><rect x="3400" y="787" width="20" height="313" fill="#7a5c3a"/><rect x="3420" y="784" width="20" height="316" fill="#7a5c3a"/><rect x="3440" y="781" width="20" height="319" fill="#7a5c3a"/><rect x="3460" y="780" width="20" height="320" fill="#7a5c3a"/><rect x="3480" y="781" width="20" height="319" fill="#7a5c3a"/><rect x="3500" y="784" width="20" height="316" fill="#7a5c3a"/><rect x="3520" y="788" width="20" height="312" fill="#7a5c3a"/><rect x="3540" y="793" width="20" height="307" fill="#e8d8a0"/><rect x="3560" y="797" width="20" height="303" fill="#e8d8a0"/><rect x="3580" y="801" width="20" height="299" fill="#e8d8a0"/><rect x="3600" y="805" width="20" height="295" fill="#5fb3d9"/><rect x="3620" y="808" width="20" height="292" fill="#5fb3d9"/><rect x="3640" y="811" width="20" height="289" fill="#5fb3d9"/><rect x="3660" y="814" width="20" height="286" fill="#5fb3d9"/><rect x="3680" y="816" width="20" height="284" fill="#5fb3d9"/><rect x="3700" y="819" width="20" height="281" fill="#5fb3d9"/><rect x="3720" y="821" width="20" height="279" fill="#5fb3d9"/><rect x="3740" y="824" width="20" height="276" fill="#5fb3d9"/><rect x="3760" y="827" width="20" height="273" fill="#5fb3d9"/><rect x="3780" y="831" width="20" height="269" fill="#5fb3d9"/><rect x="3800" y="834" width="20" height="266" fill="#5fb3d9"/><rect x="3820" y="838" width="20" height="262" fill="#5fb3d9"/><rect x="3840" y="841" width="20" height="259" fill="#5fb3d9"/><rect x="3860" y="844" width="20" height="256" fill="#5fb3d9"/><rect x="3880" y="846" width="20" height="254" fill="#5fb3d9"/><rect x="3900" y="847" width="20" height="253" fill="#5fb3d9"/><rect x="3920" y="847" width="20" height="253" fill="#5fb3d9"/><rect x="3940" y="847" width="20" height="253" fill="#5fb3d9"/><rect x="3960" y="846" width="20" height="254" fill="#5fb3d9"/><rect x="3980" y="844" width="20" height="256" fill="#5fb3d9"/><rect x="4000" y="843" width="20" height="257" fill="#5fb3d9"/><rect x="4020" y="842" width="20" height="258" fill="#5fb3d9"/><rect x="4040" y="841" width="20" height="259" fill="#5fb3d9"/><rect x="4060" y="838" width="20" height="262" fill="#5fb3d9"/><rect x="4080" y="835" width="20" height="265" fill="#5fb3d9"/><rect x="4100" y="831" width="20" height="269" fill="#5fb3d9"/><rect x="4120" y="825" width="20" height="275" fill="#5fb3d9"/><rect x="4140" y="818" width="20" height="282" fill="#5fb3d9"/><rect x="4160" y="810" width="20" height="290" fill="#5fb3d9"/><rect x="4180" y="802" width="20" height="298" fill="#e8d8a0"/><rect x="4200" y="794" width="20" height="306" fill="#e8d8a0"/><rect x="4220" y="789" width="20" height="311" fill="#7a5c3a"/><rect x="4240" y="786" width="20" height="314" fill="#7a5c3a"/><rect x="4260" y="785" width="20" height="315" fill="#7a5c3a"/><rect x="4280" y="786" width="20" height="314" fill="#7a5c3a"/><rect x="4300" y="788" width="20" height="312" fill="#7a5c3a"/><rect x="4320" y="790" width="20" height="310" fill="#7a5c3a"/><rect x="4340" y="793" width="20" height="307" fill="#e8d8a0"/><rect x="4360" y="795" width="20" height="305" fill="#e8d8a0"/><rect x="4380" y="797" width="20" height="303" fill="#e8d8a0"/><rect x="4400" y="797" width="20" height="303" fill="#e8d8a0"/><rect x="4420" y="797" width="20" height="303" fill="#e8d8a0"/><rect x="4440" y="797" width="20" height="303" fill="#e8d8a0"/><rect x="4460" y="797" width="20" height="303" fill="#e8d8a0"/><rect x="4480" y="797" width="20" height="303" fill="#e8d8a0"/><rect x="4500" y="799" width="20" height="301" fill="#e8d8a0"/><rect x="4520" y="802" width="20" height="298" fill="#e8d8a0"/><rect x="4540" y="804" width="20" height="296" fill="#5fb3d9"/><rect x="4560" y="806" width="20" height="294" fill="#5fb3d9"/><rect x="4580" y="806" width="20" height="294" fill="#5fb3d9"/><rect x="4600" y="805" width="20" height="295" fill="#5fb3d9"/><rect x="4620" y="803" width="20" height="297" fill="#e8d8a0"/><rect x="4640" y="802" width="20" height="298" fill="#e8d8a0"/><rect x="4660" y="800" width="20" height="300" fill="#e8d8a0"/><rect x="4680" y="800" width="20" height="300" fill="#e8d8a0"/><rect x="4700" y="801" width="20" height="299" fill="#e8d8a0"/><rect x="4720" y="803" width="20" height="297" fill="#e8d8a0"/><rect x="4740" y="805" width="20" height="295" fill="#5fb3d9"/><rect x="4760" y="806" width="20" height="294" fill="#5fb3d9"/><rect x="4780" y="806" width="20" height="294" fill="#5fb3d9"/><rect x="0" y="803" width="4800" height="297" fill="#2e7fc2" opacity="0.45"/><line x1="0" y1="803" x2="4800" y2="803" stroke="#1e5f9a" stroke-width="3"/><text x="4790" y="795" font-size="18" text-anchor="end" fill="#1e5f9a" font-family="sans-serif">sea level 803</text><line x1="2140" y1="637" x2="3260" y2="637" stroke="#5a4a2f" stroke-width="4" stroke-linecap="round"/><line x1="2692.9" y1="473" x2="2919.7" y2="473" stroke="#c9a227" stroke-width="6" stroke-linecap="round"/><line x1="2548.3" y1="485" x2="2722.7" y2="485" stroke="#c9a227" stroke-width="6" stroke-linecap="round"/><line x1="2518.1" y1="449" x2="2714.5" y2="449" stroke="#c9a227" stroke-width="6" stroke-linecap="round"/><line x1="2550.7" y1="320" x2="2864.9" y2="320" stroke="#c9a227" stroke-width="6" stroke-linecap="round"/><line x1="2658" y1="292" x2="2825.9" y2="292" stroke="#c9a227" stroke-width="6" stroke-linecap="round"/><line x1="2371.3" y1="255" x2="2697.5" y2="255" stroke="#c9a227" stroke-width="6" stroke-linecap="round"/><line x1="2468.5" y1="130" x2="2653.4" y2="130" stroke="#c9a227" stroke-width="6" stroke-linecap="round"/><line x1="2397.1" y1="56" x2="2608.4" y2="56" stroke="#c9a227" stroke-width="6" stroke-linecap="round"/><line x1="2490.3" y1="111" x2="2765.4" y2="111" stroke="#c9a227" stroke-width="6" stroke-linecap="round"/><line x1="0" y1="833" x2="680" y2="833" stroke="#5a4a2f" stroke-width="4" stroke-linecap="round"/><line x1="222.2" y1="653" x2="515.3" y2="653" stroke="#3e6b2f" stroke-width="3" stroke-linecap="round"/><line x1="223.6" y1="664" x2="400.2" y2="664" stroke="#3e6b2f" stroke-width="3" stroke-linecap="round"/><line x1="177.8" y1="661" x2="520.2" y2="661" stroke="#3e6b2f" stroke-width="3" stroke-linecap="round"/><line x1="720" y1="757" x2="1080" y2="757" stroke="#5a4a2f" stroke-width="4" stroke-linecap="round"/><line x1="730" y1="512" x2="910" y2="512" stroke="#3e6b2f" stroke-width="3" stroke-linecap="round"/><line x1="660" y1="662" x2="840" y2="662" stroke="#3e6b2f" stroke-width="3" stroke-linecap="round"/><line x1="760" y1="606" x2="940" y2="606" stroke="#3e6b2f" stroke-width="3" stroke-linecap="round"/><line x1="1130" y1="764" x2="1330" y2="764" stroke="#5a4a2f" stroke-width="4" stroke-linecap="round"/><line x1="1190" y1="768" x2="1390" y2="768" stroke="#5a4a2f" stroke-width="4" stroke-linecap="round"/><line x1="1330" y1="784" x2="1530" y2="784" stroke="#5a4a2f" stroke-width="4" stroke-linecap="round"/><line x1="1430" y1="791" x2="1630" y2="791" stroke="#5a4a2f" stroke-width="4" stroke-linecap="round"/><line x1="1540" y1="794" x2="1760" y2="794" stroke="#5a4a2f" stroke-width="4" stroke-linecap="round"/><line x1="1580" y1="674" x2="1810" y2="674" stroke="#3e6b2f" stroke-width="3" stroke-linecap="round"/><line x1="1760" y1="820" x2="2100" y2="820" stroke="#5a4a2f" stroke-width="4" stroke-linecap="round"/><line x1="1800" y1="689" x2="2036.4" y2="689" stroke="#3e6b2f" stroke-width="3" stroke-linecap="round"/><line x1="1803.2" y1="673" x2="2005.7" y2="673" stroke="#3e6b2f" stroke-width="3" stroke-linecap="round"/><line x1="1820.6" y1="620" x2="2060" y2="620" stroke="#3e6b2f" stroke-width="3" stroke-linecap="round"/><line x1="3600" y1="846" x2="4180" y2="846" stroke="#5a4a2f" stroke-width="4" stroke-linecap="round"/><line x1="3794.2" y1="661" x2="4140" y2="661" stroke="#3e6b2f" stroke-width="3" stroke-linecap="round"/><line x1="3769.4" y1="710" x2="4032.7" y2="710" stroke="#3e6b2f" stroke-width="3" stroke-linecap="round"/><line x1="3742.4" y1="650" x2="4083.1" y2="650" stroke="#3e6b2f" stroke-width="3" stroke-linecap="round"/><line x1="4340" y1="797" x2="4540" y2="797" stroke="#5a4a2f" stroke-width="4" stroke-linecap="round"/><line x1="4380" y1="677" x2="4538.7" y2="677" stroke="#3e6b2f" stroke-width="3" stroke-linecap="round"/><line x1="4380" y1="677" x2="4627.3" y2="677" stroke="#3e6b2f" stroke-width="3" stroke-linecap="round"/><rect x="2140" y="40" width="1120" height="1060" fill="none" stroke="#c9a227" stroke-width="4" stroke-dasharray="14,8"/><text x="2148" y="58" font-size="20" fill="#8a6d1a" font-family="sans-serif">founder canopy (21 fruit slots)</text><rect x="0" y="1100" width="4800" height="60" fill="#1a1a1a"/><text x="16" y="1138" font-size="28" fill="#ffffff" font-family="sans-serif">seed 7 — attempts: 1</text></svg>