<svg xmlns="http://www.w3.org/2000/svg" width="4800" height="1160" viewBox="0 0 4800 1160"><rect x="0" y="0" width="4800" height="1100" fill="#eef4f8"/><rect x="0" y="0" width="420" height="34" fill="#5fb3d9" opacity="0.85"/><text x="210" y="22" font-size="20" text-anchor="middle" fill="#ffffff" font-family="sans-serif">shallows</text><rect x="420" y="0" width="20" height="34" fill="#7fbf5f" opacity="0.85"/><rect x="440" y="0" width="20" height="34" fill="#cfe8f2" opacity="0.85"/><rect x="460" y="0" width="300" height="34" fill="#5fb3d9" opacity="0.85"/><text x="610" y="22" font-size="20" text-anchor="middle" fill="#ffffff" font-family="sans-serif">shallows</text><rect x="760" y="0" width="460" height="34" fill="#cfe8f2" opacity="0.85"/><text x="990" y="22" font-size="20" text-anchor="middle" fill="#ffffff" font-family="sans-serif">arctic</text><rect x="1220" y="0" width="20" height="34" fill="#8a8d94" opacity="0.85"/><rect x="1240" y="0" width="20" height="34" fill="#7fbf5f" opacity="0.85"/><rect x="1260" y="0" width="420" height="34" fill="#5fb3d9" opacity="0.85"/><text x="1470" y="22" font-size="20" text-anchor="middle" fill="#ffffff" font-family="sans-serif">shallows</text><rect x="1680" y="0" width="260" height="34" fill="#7fbf5f" opacity="0.85"/><text x="1810" y="22" font-size="20" text-anchor="middle" fill="#ffffff" font-family="sans-serif">plains</text><rect x="1940" y="0" width="1200" height="34" fill="#2d7a3a" opacity="0.85"/><text x="2540" y="22" font-size="20" text-anchor="middle" fill="#ffffff" font-family="sans-serif">jungle</text><rect x="3140" y="0" width="80" height="34" fill="#7fbf5f" opacity="0.85"/><rect x="3220" y="0" width="280" height="34" fill="#2d7a3a" opacity="0.85"/><text x="3360" y="22" font-size="20" text-anchor="middle" fill="#ffffff" font-family="sans-serif">jungle</text><rect x="3500" y="0" width="60" height="34" fill="#d9b25f" opacity="0.85"/><rect x="3560" y="0" width="80" height="34" fill="#5fb3d9" opacity="0.85"/><rect x="3640" y="0" width="140" height="34" fill="#3fa08a" opacity="0.85"/><text x="3710" y="22" font-size="20" text-anchor="middle" fill="#ffffff" font-family="sans-serif">archipelago</text><rect x="3780" y="0" width="140" height="34" fill="#5fb3d9" opacity="0.85"/><text x="3850" y="22" font-size="20" text-anchor="middle" fill="#ffffff" font-family="sans-serif">shallows</text><rect x="3920" y="0" width="160" height="34" fill="#3fa08a" opacity="0.85"/><text x="4000" y="22" font-size="20" text-anchor="middle" fill="#ffffff" font-family="sans-serif">archipelago</text><rect x="4080" y="0" width="220" height="34" fill="#5fb3d9" opacity="0.85"/><text x="4190" y="22" font-size="20" text-anchor="middle" fill="#ffffff" font-family="sans-serif">shallows</text><rect x="4300" y="0" width="80" height="34" fill="#d9b25f" opacity="0.85"/><rect x="4380" y="0" width="100" height="34" fill="#2d7a3a" opacity="0.85"/><rect x="4480" y="0" width="80" height="34" fill="#d9b25f" opacity="0.85"/><rect x="4560" y="0" width="180" height="34" fill="#2d7a3a" opacity="0.85"/><text x="4650" y="22" font-size="20" text-anchor="middle" fill="#ffffff" font-family="sans-serif">jungle</text><rect x="4740" y="0" width="60" height="34" fill="#d9b25f" opacity="0.85"/><rect x="0" y="814" width="20" height="286" fill="#5fb3d9"/><rect x="20" y="813" width="20" height="287" fill="#5fb3d9"/><rect x="40" y="812" width="20" height="288" fill="#5fb3d9"/><rect x="60" y="811" width="20" height="289" fill="#5fb3d9"/><rect x="80" y="810" width="20" height="290" fill="#5fb3d9"/><rect x="100" y="809" width="20" height="291" fill="#5fb3d9"/><rect x="120" y="808" width="20" height="292" fill="#5fb3d9"/><rect x="140" y="807" width="20" height="293" fill="#5fb3d9"/><rect x="160" y="807" width="20" height="293" fill="#5fb3d9"/><rect x="180" y="808" width="20" height="292" fill="#5fb3d9"/><rect x="200" y="810" width="20" height="290" fill="#5fb3d9"/><rect x="220" y="813" width="20" height="287" fill="#5fb3d9"/><rect x="240" y="815" width="20" height="285" fill="#5fb3d9"/><rect x="260" y="818" width="20" height="282" fill="#5fb3d9"/><rect x="280" y="819" width="20" height="281" fill="#5fb3d9"/><rect x="300" y="819" width="20" height="281" fill="#5fb3d9"/><rect x="320" y="816" width="20" height="284" fill="#5fb3d9"/><rect x="340" y="813" width="20" height="287" fill="#5fb3d9"/><rect x="360" y="809" width="20" height="291" fill="#5fb3d9"/><rect x="380" y="806" width="20" height="294" fill="#5fb3d9"/><rect x="400" y="804" width="20" height="296" fill="#5fb3d9"/><rect x="420" y="803" width="20" height="297" fill="#e8d8a0"/><rect x="440" y="803" width="20" height="297" fill="#e8d8a0"/><rect x="460" y="804" width="20" height="296" fill="#5fb3d9"/><rect x="480" y="805" width="20" height="295" fill="#5fb3d9"/><rect x="500" y="806" width="20" height="294" fill="#5fb3d9"/><rect x="520" y="806" width="20" height="294" fill="#5fb3d9"/><rect x="540" y="807" width="20" height="293" fill="#5fb3d9"/><rect x="560" y="808" width="20" height="292" fill="#5fb3d9"/><rect x="580" y="809" width="20" height="291" fill="#5fb3d9"/><rect x="600" y="810" width="20" height="290" fill="#5fb3d9"/><rect x="620" y="811" width="20" height="289" fill="#5fb3d9"/><rect x="640" y="812" width="20" height="288" fill="#5fb3d9"/><rect x="660" y="812" width="20" height="288" fill="#5fb3d9"/><rect x="680" y="811" width="20" height="289" fill="#5fb3d9"/><rect x="700" y="810" width="20" height="290" fill="#5fb3d9"/><rect x="720" y="809" width="20" height="291" fill="#5fb3d9"/><rect x="740" y="807" width="20" height="293" fill="#5fb3d9"/><rect x="760" y="803" width="20" height="297" fill="#e8d8a0"/><rect x="780" y="799" width="20" height="301" fill="#e8d8a0"/><rect x="800" y="793" width="20" height="307" fill="#e8d8a0"/><rect x="820" y="787" width="20" height="313" fill="#7a5c3a"/><rect x="840" y="780" width="20" height="320" fill="#7a5c3a"/><rect x="860" y="774" width="20" height="326" fill="#7a5c3a"/><rect x="880" y="769" width="20" height="331" fill="#7a5c3a"/><rect x="900" y="765" width="20" height="335" fill="#7a5c3a"/><rect x="920" y="763" width="20" height="337" fill="#7a5c3a"/><rect x="940" y="761" width="20" height="339" fill="#7a5c3a"/><rect x="960" y="761" width="20" height="339" fill="#7a5c3a"/><rect x="980" y="761" width="20" height="339" fill="#7a5c3a"/><rect x="1000" y="762" width="20" height="338" fill="#7a5c3a"/><rect x="1020" y="762" width="20" height="338" fill="#7a5c3a"/><rect x="1040" y="763" width="20" height="337" fill="#7a5c3a"/><rect x="1060" y="763" width="20" height="337" fill="#7a5c3a"/><rect x="1080" y="762" width="20" height="338" fill="#7a5c3a"/><rect x="1100" y="761" width="20" height="339" fill="#7a5c3a"/><rect x="1120" y="761" width="20" height="339" fill="#7a5c3a"/><rect x="1140" y="762" width="20" height="338" fill="#7a5c3a"/><rect x="1160" y="765" width="20" height="335" fill="#7a5c3a"/><rect x="1180" y="771" width="20" height="329" fill="#7a5c3a"/><rect x="1200" y="779" width="20" height="321" fill="#7a5c3a"/><rect x="1220" y="788" width="20" height="312" fill="#7a5c3a"/><rect x="1240" y="799" width="20" height="301" fill="#e8d8a0"/><rect x="1260" y="809" width="20" height="291" fill="#5fb3d9"/><rect x="1280" y="817" width="20" height="283" fill="#5fb3d9"/><rect x="1300" y="822" width="20" height="278" fill="#5fb3d9"/><rect x="1320" y="825" width="20" height="275" fill="#5fb3d9"/><rect x="1340" y="825" width="20" height="275" fill="#5fb3d9"/><rect x="1360" y="823" width="20" height="277" fill="#5fb3d9"/><rect x="1380" y="820" width="20" height="280" fill="#5fb3d9"/><rect x="1400" y="817" width="20" height="283" fill="#5fb3d9"/><rect x="1420" y="814" width="20" height="286" fill="#5fb3d9"/><rect x="1440" y="811" width="20" height="289" fill="#5fb3d9"/><rect x="1460" y="810" width="20" height="290" fill="#5fb3d9"/><rect x="1480" y="810" width="20" height="290" fill="#5fb3d9"/><rect x="1500" y="811" width="20" height="289" fill="#5fb3d9"/><rect x="1520" y="813" width="20" height="287" fill="#5fb3d9"/><rect x="1540" y="816" width="20" height="284" fill="#5fb3d9"/><rect x="1560" y="818" width="20" height="282" fill="#5fb3d9"/><rect x="1580" y="819" width="20" height="281" fill="#5fb3d9"/><rect x="1600" y="818" width="20" height="282" fill="#5fb3d9"/><rect x="1620" y="816" width="20" height="284" fill="#5fb3d9"/><rect x="1640" y="812" width="20" height="288" fill="#5fb3d9"/><rect x="1660" y="807" width="20" height="293" fill="#5fb3d9"/><rect x="1680" y="802" width="20" height="298" fill="#e8d8a0"/><rect x="1700" y="799" width="20" height="301" fill="#e8d8a0"/><rect x="1720" y="796" width="20" height="304" fill="#e8d8a0"/><rect x="1740" y="795" width="20" height="305" fill="#e8d8a0"/><rect x="1760" y="796" width="20" height="304" fill="#e8d8a0"/><rect x="1780" y="797" width="20" height="303" fill="#e8d8a0"/><rect x="1800" y="799" width="20" height="301" fill="#e8d8a0"/><rect x="1820" y="800" width="20" height="300" fill="#e8d8a0"/><rect x="1840" y="800" width="20" height="300" fill="#e8d8a0"/><rect x="1860" y="799" width="20" height="301" fill="#e8d8a0"/><rect x="1880" y="797" width="20" height="303" fill="#e8d8a0"/><rect x="1900" y="795" width="20" height="305" fill="#e8d8a0"/><rect x="1920" y="793" width="20" height="307" fill="#e8d8a0"/><rect x="1940" y="790" width="20" height="310" fill="#7a5c3a"/><rect x="1960" y="787" width="20" height="313" fill="#7a5c3a"/><rect x="1980" y="783" width="20" height="317" fill="#7a5c3a"/><rect x="2000" y="780" width="20" height="320" fill="#7a5c3a"/><rect x="2020" y="777" width="20" height="323" fill="#7a5c3a"/><rect x="2040" y="775" width="20" height="325" fill="#7a5c3a"/><rect x="2060" y="773" width="20" height="327" fill="#7a5c3a"/><rect x="2080" y="771" width="20" height="329" fill="#7a5c3a"/><rect x="2100" y="770" width="20" height="330" fill="#7a5c3a"/><rect x="2120" y="769" width="20" height="331" fill="#7a5c3a"/><rect x="2140" y="769" width="20" height="331" fill="#7a5c3a"/><rect x="2160" y="770" width="20" height="330" fill="#7a5c3a"/><rect x="2180" y="771" width="20" height="329" fill="#7a5c3a"/><rect x="2200" y="772" width="20" height="328" fill="#7a5c3a"/><rect x="2220" y="773" width="20" height="327" fill="#7a5c3a"/><rect x="2240" y="774" width="20" height="326" fill="#7a5c3a"/><rect x="2260" y="774" width="20" height="326" fill="#7a5c3a"/><rect x="2280" y="774" width="20" height="326" fill="#7a5c3a"/><rect x="2300" y="774" width="20" height="326" fill="#7a5c3a"/><rect x="2320" y="774" width="20" height="326" fill="#7a5c3a"/><rect x="2340" y="773" width="20" height="327" fill="#7a5c3a"/><rect x="2360" y="772" width="20" height="328" fill="#7a5c3a"/><rect x="2380" y="770" width="20" height="330" fill="#7a5c3a"/><rect x="2400" y="768" width="20" height="332" fill="#7a5c3a"/><rect x="2420" y="768" width="20" height="332" fill="#7a5c3a"/><rect x="2440" y="768" width="20" height="332" fill="#7a5c3a"/><rect x="2460" y="770" width="20" height="330" fill="#7a5c3a"/><rect x="2480" y="771" width="20" height="329" fill="#7a5c3a"/><rect x="2500" y="772" width="20" height="328" fill="#7a5c3a"/><rect x="2520" y="770" width="20" height="330" fill="#7a5c3a"/><rect x="2540" y="766" width="20" height="334" fill="#7a5c3a"/><rect x="2560" y="761" width="20" height="339" fill="#7a5c3a"/><rect x="2580" y="754" width="20" height="346" fill="#7a5c3a"/><rect x="2600" y="747" width="20" height="353" fill="#7a5c3a"/><rect x="2620" y="740" width="20" height="360" fill="#7a5c3a"/><rect x="2640" y="734" width="20" height="366" fill="#7a5c3a"/><rect x="2660" y="726" width="20" height="374" fill="#7a5c3a"/><rect x="2680" y="718" width="20" height="382" fill="#7a5c3a"/><rect x="2700" y="708" width="20" height="392" fill="#7a5c3a"/><rect x="2720" y="698" width="20" height="402" fill="#7a5c3a"/><rect x="2740" y="685" width="20" height="415" fill="#7a5c3a"/><rect x="2760" y="671" width="20" height="429" fill="#7a5c3a"/><rect x="2780" y="656" width="20" height="444" fill="#7a5c3a"/><rect x="2800" y="642" width="20" height="458" fill="#7a5c3a"/><rect x="2820" y="627" width="20" height="473" fill="#7a5c3a"/><rect x="2840" y="614" width="20" height="486" fill="#7a5c3a"/><rect x="2860" y="604" width="20" height="496" fill="#7a5c3a"/><rect x="2880" y="595" width="20" height="505" fill="#7a5c3a"/><rect x="2900" y="588" width="20" height="512" fill="#7a5c3a"/><rect x="2920" y="583" width="20" height="517" fill="#7a5c3a"/><rect x="2940" y="580" width="20" height="520" fill="#7a5c3a"/><rect x="2960" y="580" width="20" height="520" fill="#7a5c3a"/><rect x="2980" y="582" width="20" height="518" fill="#7a5c3a"/><rect x="3000" y="586" width="20" height="514" fill="#7a5c3a"/><rect x="3020" y="592" width="20" height="508" fill="#7a5c3a"/><rect x="3040" y="600" width="20" height="500" fill="#7a5c3a"/><rect x="3060" y="609" width="20" height="491" fill="#7a5c3a"/><rect x="3080" y="620" width="20" height="480" fill="#7a5c3a"/><rect x="3100" y="634" width="20" height="466" fill="#7a5c3a"/><rect x="3120" y="650" width="20" height="450" fill="#7a5c3a"/><rect x="3140" y="668" width="20" height="432" fill="#6e6e6e"/><rect x="3160" y="689" width="20" height="411" fill="#6e6e6e"/><rect x="3180" y="709" width="20" height="391" fill="#6e6e6e"/><rect x="3200" y="729" width="20" height="371" fill="#6e6e6e"/><rect x="3220" y="747" width="20" height="353" fill="#7a5c3a"/><rect x="3240" y="762" width="20" height="338" fill="#7a5c3a"/><rect x="3260" y="772" width="20" height="328" fill="#7a5c3a"/><rect x="3280" y="778" width="20" height="322" fill="#7a5c3a"/><rect x="3300" y="781" width="20" height="319" fill="#7a5c3a"/><rect x="3320" y="781" width="20" height="319" fill="#7a5c3a"/><rect x="3340" y="779" width="20" height="321" fill="#7a5c3a"/><rect x="3360" y="777" width="20" height="323" fill="#7a5c3a"/><rect x="3380" y="775" width="20" height="325" fill="#7a5c3a"/><rect x="3400" y="775" width="20" height="325" fill="#7a5c3a"/><rect x="3420" y="776" width="20" height="324" fill="#7a5c3a"/><rect x="3440" y="779" width="20" height="321" fill="#7a5c3a"/><rect x="3460" y="783" width="20" height="317" fill="#7a5c3a"/><rect x="3480" y="788" width="20" height="312" fill="#7a5c3a"/><rect x="3500" y="793" width="20" height="307" fill="#e8d8a0"/><rect x="3520" y="797" width="20" height="303" fill="#e8d8a0"/><rect x="3540" y="801" width="20" height="299" fill="#e8d8a0"/><rect x="3560" y="804" width="20" height="296" fill="#5fb3d9"/><rect x="3580" y="806" width="20" height="294" fill="#5fb3d9"/><rect x="3600" y="806" width="20" height="294" fill="#5fb3d9"/><rect x="3620" y="805" width="20" height="295" fill="#5fb3d9"/><rect x="3640" y="803" width="20" height="297" fill="#e8d8a0"/><rect x="3660" y="800" width="20" height="300" fill="#e8d8a0"/><rect x="3680" y="798" width="20" height="302" fill="#e8d8a0"/><rect x="3700" y="797" width="20" height="303" fill="#e8d8a0"/><rect x="3720" y="798" width="20" height="302" fill="#e8d8a0"/><rect x="3740" y="800" width="20" height="300" fill="#e8d8a0"/><rect x="3760" y="803" width="20" height="297" fill="#e8d8a0"/><rect x="3780" y="806" width="20" height="294" fill="#5fb3d9"/><rect x="3800" y="809" width="20" height="291" fill="#5fb3d9"/><rect x="3820" y="811" width="20" height="289" fill="#5fb3d9"/><rect x="3840" y="811" width="20" height="289" fill="#5fb3d9"/><rect x="3860" y="809" width="20" height="291" fill="#5fb3d9"/><rect x="3880" y="807" width="20" height="293" fill="#5fb3d9"/><rect x="3900" y="804" width="20" height="296" fill="#5fb3d9"/><rect x="3920" y="801" width="20" height="299" fill="#e8d8a0"/><rect x="3940" y="800" width="20" height="300" fill="#e8d8a0"/><rect x="3960" y="798" width="20" height="302" fill="#e8d8a0"/><rect x="3980" y="798" width="20" height="302" fill="#e8d8a0"/><rect x="4000" y="797" width="20" height="303" fill="#e8d8a0"/><rect x="4020" y="798" width="20" height="302" fill="#e8d8a0"/><rect x="4040" y="799" width="20" height="301" fill="#e8d8a0"/><rect x="4060" y="801" width="20" height="299" fill="#e8d8a0"/><rect x="4080" y="805" width="20" height="295" fill="#5fb3d9"/><rect x="4100" y="809" width="20" height="291" fill="#5fb3d9"/><rect x="4120" y="812" width="20" height="288" fill="#5fb3d9"/><rect x="4140" y="814" width="20" height="286" fill="#5fb3d9"/><rect x="4160" y="814" width="20" height="286" fill="#5fb3d9"/><rect x="4180" y="814" width="20" height="286" fill="#5fb3d9"/><rect x="4200" y="812" width="20" height="288" fill="#5fb3d9"/><rect x="4220" y="810" width="20" height="290" fill="#5fb3d9"/><rect x="4240" y="809" width="20" height="291" fill="#5fb3d9"/><rect x="4260" y="806" width="20" height="294" fill="#5fb3d9"/><rect x="4280" y="804" width="20" height="296" fill="#5fb3d9"/><rect x="4300" y="801" width="20" height="299" fill="#e8d8a0"/><rect x="4320" y="797" width="20" height="303" fill="#e8d8a0"/><rect x="4340" y="795" width="20" height="305" fill="#e8d8a0"/><rect x="4360" y="793" width="20" height="307" fill="#e8d8a0"/><rect x="4380" y="791" width="20" height="309" fill="#7a5c3a"/><rect x="4400" y="790" width="20" height="310" fill="#7a5c3a"/><rect x="4420" y="790" width="20" height="310" fill="#7a5c3a"/><rect x="4440" y="790" width="20" height="310" fill="#7a5c3a"/><rect x="4460" y="791" width="20" height="309" fill="#7a5c3a"/><rect x="4480" y="792" width="20" height="308" fill="#e8d8a0"/><rect x="4500" y="792" width="20" height="308" fill="#e8d8a0"/><rect x="4520" y="792" width="20" height="308" fill="#e8d8a0"/><rect x="4540" y="792" width="20" height="308" fill="#e8d8a0"/><rect x="4560" y="790" width="20" height="310" fill="#7a5c3a"/><rect x="4580" y="789" width="20" height="311" fill="#7a5c3a"/><rect x="4600" y="787" width="20" height="313" fill="#7a5c3a"/><rect x="4620" y="786" width="20" height="314" fill="#7a5c3a"/><rect x="4640" y="785" width="20" height="315" fill="#7a5c3a"/><rect x="4660" y="786" width="20" height="314" fill="#7a5c3a"/><rect x="4680" y="787" width="20" height="313" fill="#7a5c3a"/><rect x="4700" y="789" width="20" height="311" fill="#7a5c3a"/><rect x="4720" y="790" width="20" height="310" fill="#7a5c3a"/><rect x="4740" y="792" width="20" height="308" fill="#e8d8a0"/><rect x="4760" y="792" width="20" height="308" fill="#e8d8a0"/><rect x="4780" y="793" width="20" height="307" fill="#e8d8a0"/><rect x="0" y="803" width="4800" height="297" fill="#2e7fc2" opacity="0.45"/><line x1="0" y1="803" x2="4800" y2="803" stroke="#1e5f9a" stroke-width="3"/><text x="4790" y="795" font-size="18" text-anchor="end" fill="#1e5f9a" font-family="sans-serif">sea level 803</text><line x1="1940" y1="766" x2="3140" y2="766" stroke="#5a4a2f" stroke-width="4" stroke-linecap="round"/><line x1="2541.3" y1="596" x2="2774.2" y2="596" stroke="#c9a227" stroke-width="6" stroke-linecap="round"/><line x1="2418.1" y1="646" x2="2671.8" y2="646" stroke="#c9a227" stroke-width="6" stroke-linecap="round"/><line x1="2523.5" y1="630" x2="2742.2" y2="630" stroke="#c9a227" stroke-width="6" stroke-linecap="round"/><line x1="2481.3" y1="630" x2="2795" y2="630" stroke="#c9a227" stroke-width="6" stroke-linecap="round"/><line x1="2499.2" y1="453" x2="2678.8" y2="453" stroke="#c9a227" stroke-width="6" stroke-linecap="round"/><line x1="2381.3" y1="488" x2="2688.7" y2="488" stroke="#c9a227" stroke-width="6" stroke-linecap="round"/><line x1="2528.3" y1="451" x2="2700.7" y2="451" stroke="#c9a227" stroke-width="6" stroke-linecap="round"/><line x1="2553.8" y1="465" x2="2711.8" y2="465" stroke="#c9a227" stroke-width="6" stroke-linecap="round"/><line x1="2422.3" y1="309" x2="2705.2" y2="309" stroke="#c9a227" stroke-width="6" stroke-linecap="round"/><line x1="2377.4" y1="263" x2="2698.1" y2="263" stroke="#c9a227" stroke-width="6" stroke-linecap="round"/><line x1="2540.7" y1="287" x2="2731.5" y2="287" stroke="#c9a227" stroke-width="6" stroke-linecap="round"/><line x1="2443.5" y1="297" x2="2748.2" y2="297" stroke="#c9a227" stroke-width="6" stroke-linecap="round"/><line x1="0" y1="810" x2="420" y2="810" stroke="#5a4a2f" stroke-width="4" stroke-linecap="round"/><line x1="40" y1="675" x2="279.9" y2="675" stroke="#3e6b2f" stroke-width="3" stroke-linecap="round"/><line x1="40" y1="680" x2="306.7" y2="680" stroke="#3e6b2f" stroke-width="3" stroke-linecap="round"/><line x1="72.9" y1="643" x2="271.6" y2="643" stroke="#3e6b2f" stroke-width="3" stroke-linecap="round"/><line x1="173" y1="643" x2="380" y2="643" stroke="#3e6b2f" stroke-width="3" stroke-linecap="round"/><line x1="350" y1="803" x2="550" y2="803" stroke="#5a4a2f" stroke-width="4" stroke-linecap="round"/><line x1="460" y1="810" x2="760" y2="810" stroke="#5a4a2f" stroke-width="4" stroke-linecap="round"/><line x1="500" y1="634" x2="821.2" y2="634" stroke="#3e6b2f" stroke-width="3" stroke-linecap="round"/><line x1="500" y1="685" x2="731.5" y2="685" stroke="#3e6b2f" stroke-width="3" stroke-linecap="round"/><line x1="512.2" y1="628" x2="701.3" y2="628" stroke="#3e6b2f" stroke-width="3" stroke-linecap="round"/><line x1="500" y1="629" x2="817.2" y2="629" stroke="#3e6b2f" stroke-width="3" stroke-linecap="round"/><line x1="760" y1="761" x2="1220" y2="761" stroke="#5a4a2f" stroke-width="4" stroke-linecap="round"/><line x1="1120" y1="699" x2="1300" y2="699" stroke="#3e6b2f" stroke-width="3" stroke-linecap="round"/><line x1="1100" y1="651" x2="1280" y2="651" stroke="#3e6b2f" stroke-width="3" stroke-linecap="round"/><line x1="740" y1="627" x2="920" y2="627" stroke="#3e6b2f" stroke-width="3" stroke-linecap="round"/><line x1="1130" y1="788" x2="1330" y2="788" stroke="#5a4a2f" stroke-width="4" stroke-linecap="round"/><line x1="1260" y1="810" x2="1680" y2="810" stroke="#5a4a2f" stroke-width="4" stroke-linecap="round"/><line x1="1300" y1="666" x2="1563.6" y2="666" stroke="#3e6b2f" stroke-width="3" stroke-linecap="round"/><line x1="1322.6" y1="681" x2="1640" y2="681" stroke="#3e6b2f" stroke-width="3" stroke-linecap="round"/><line x1="1300" y1="654" x2="1499.4" y2="654" stroke="#3e6b2f" stroke-width="3" stroke-linecap="round"/><line x1="1680" y1="799" x2="1940" y2="799" stroke="#5a4a2f" stroke-width="4" stroke-linecap="round"/><line x1="4080" y1="814" x2="4300" y2="814" stroke="#5a4a2f" stroke-width="4" stroke-linecap="round"/><line x1="4120" y1="642" x2="4380.1" y2="642" stroke="#3e6b2f" stroke-width="3" stroke-linecap="round"/><line x1="4120" y1="628" x2="4339.1" y2="628" stroke="#3e6b2f" stroke-width="3" stroke-linecap="round"/><line x1="4120" y1="634" x2="4342" y2="634" stroke="#3e6b2f" stroke-width="3" stroke-linecap="round"/><rect x="1940" y="40" width="1200" height="1060" fill="none" stroke="#c9a227" stroke-width="4" stroke-dasharray="14,8"/><text x="1948" y="58" font-size="20" fill="#8a6d1a" font-family="sans-serif">founder canopy (30 fruit slots)</text><rect x="0" y="1100" width="4800" height="60" fill="#1a1a1a"/><text x="16" y="1138" font-size="28" fill="#ffffff" font-family="sans-serif">seed 99 — attempts: 1</text></svg>